<?xml version="1.0" encoding="UTF-8" standalone="no"?>
<svg
   width="100%"
   height="100%"
   viewBox="0 0 512 512"
   version="1.1"
   xml:space="preserve"
   style="fill-rule:evenodd;clip-rule:evenodd;stroke-linejoin:round;stroke-miterlimit:1.41421;"
   id="svg6"
   sodipodi:docname="dragnjoy.svg"
   inkscape:version="1.3.2 (091e20e, 2023-11-25, custom)"
   xmlns:inkscape="http://www.inkscape.org/namespaces/inkscape"
   xmlns:sodipodi="http://sodipodi.sourceforge.net/DTD/sodipodi-0.dtd"
   xmlns="http://www.w3.org/2000/svg"
   xmlns:svg="http://www.w3.org/2000/svg"><defs
   id="defs6" /><sodipodi:namedview
   id="namedview6"
   pagecolor="#ffffff"
   bordercolor="#000000"
   borderopacity="0.25"
   inkscape:showpageshadow="2"
   inkscape:pageopacity="0.0"
   inkscape:pagecheckerboard="0"
   inkscape:deskcolor="#d1d1d1"
   inkscape:zoom="1.0122239"
   inkscape:cx="296.87107"
   inkscape:cy="275.63071"
   inkscape:window-width="1440"
   inkscape:window-height="890"
   inkscape:window-x="-6"
   inkscape:window-y="-6"
   inkscape:window-maximized="1"
   inkscape:current-layer="svg6" />
    <g
   transform="matrix(-1,0,0,1,23.1393,508.91)"
   id="g1">
        <path
   d="M-33.041,-481.413C-59.908,-473.709 -59.739,-452.489 -59.739,-452.489L-103.857,-438.696C-103.857,-438.696 -152.358,-479.963 -214.652,-458.916C-221.801,-456.501 -255.224,-446.641 -296.076,-444.391C-305.421,-443.877 -455.448,-460.569 -455.448,-460.569C-455.448,-460.569 -454.423,-425.769 -412.857,-405.153C-391.233,-394.428 -359.472,-401.458 -349.787,-402.603C-353.974,-402.174 -488.423,-401.734 -488.423,-401.734C-488.423,-401.734 -479.272,-355.249 -431.152,-345.868C-403.056,-340.39 -405.81,-346.494 -407.96,-342.096C-444.428,-267.519 -438.332,-270.855 -444.966,-229.641C-454.501,-170.416 -428.313,-61.765 -413.313,-38.432C-301.922,36.223 -185.646,-25.765 -166.646,-59.765C-222.647,-108.765 -288.762,-238.17 -205.097,-257.783C-156.972,-269.065 -36.119,-266.327 -12.245,-289.759C7.695,-309.329 7.317,-384.858 7.317,-384.858L-2.335,-477.2C-2.335,-477.2 -6.175,-489.117 -33.041,-481.413"
   style="fill:rgb(255,186,0);fill-rule:nonzero;"
   id="path1" />
    </g>
    
    <g
   transform="matrix(-0.93434471,-0.35637185,-0.35637185,0.93434471,211.39872,72.810587)"
   id="g3">
        <path
   d="M -5.491,31.941 C -4.116,27.686 -11.301,24.204 -22.31,13.086 -30.691,4.621 -37.887,1.645 -31.158,-8.027 -21.861,-21.391 0.276,6.736 10.855,19.534 26.982,39.043 32.121,57.123 23.867,60.89 16.935,64.055 6.604,56.602 -9.012,51.527 c -16.691,-5.424 -21.809,-5.18 -33.202,-8.365 -11.904,-3.327 -0.312,-18.327 5.521,-17.83 13.87,1.18 29.827,10.865 31.202,6.609 z"
   style="fill:#231f20;fill-rule:nonzero"
   id="path3" />
    </g>
    <g
   transform="rotate(-8.3609611,-178.38919,1199.7814)"
   id="g4">
        <path
   d="m 386.352,196.191 c 0,0 55.196,16.825 53.729,55.452 -0.862,22.698 -23.976,26.901 -35.053,12.929 -18.221,-22.982 -18.676,-68.381 -18.676,-68.381 z"
   style="fill:#5dadec;fill-opacity:1"
   id="path4" />
    </g>
    
    <g
   transform="matrix(-0.530963,-0.847395,-0.847395,0.530963,39.3513,54.3859)"
   id="g6">
        <path
   d="M-10.739,-19.403C-17.74,-19.403 -23.413,-13.729 -23.414,-6.728C-23.414,0.271 -17.739,5.946 -10.739,5.945C-3.739,5.944 1.935,0.271 1.936,-6.729C1.936,-13.729 -3.739,-19.403 -10.739,-19.403"
   style="fill:rgb(35,31,32);fill-rule:nonzero;"
   id="path6" />
    </g>
<path
   style="fill:#fbfbfb;fill-opacity:1;stroke:#1a1a1a;stroke-width:15;stroke-dasharray:none"
   d="m 28.649787,156.09194 0.987924,22.72225 c 0,0 -2.963771,10.86716 43.468642,26.67394 46.432417,15.80678 121.514617,2.96377 124.478387,-24.69809 2.96377,-27.66187 -61.25127,-6.91547 -103.731989,-14.81886 C 51.372032,158.06779 26.67394,127.44216 26.67394,127.44216 Z"
   id="path7"
   sodipodi:nodetypes="csssccc" /><path
   style="fill:none;fill-opacity:1;stroke:#1a1a1a;stroke-width:10;stroke-dasharray:none"
   d="m 24.698092,171.89872 26.67394,-16.7947 6.915466,38.52902 24.698092,-20.74639 19.75847,34.57733 19.75848,-36.55318 18.77055,37.5411 17.78262,-45.44449 18.77055,37.5411"
   id="path8"
   sodipodi:nodetypes="ccccccccc" /></svg>
