<?xml version="1.0" encoding="UTF-8" standalone="no"?>
<svg
   width="100%"
   height="100%"
   viewBox="0 0 512 512"
   version="1.1"
   xml:space="preserve"
   style="fill-rule:evenodd;clip-rule:evenodd;stroke-linecap:round;stroke-linejoin:round;stroke-miterlimit:1.5;"
   id="svg4"
   sodipodi:docname="dragnlightning.svg"
   inkscape:version="1.4.2 (ebf0e940d0, 2025-05-08)"
   inkscape:export-filename="dragnlightning.png"
   inkscape:export-xdpi="48"
   inkscape:export-ydpi="48"
   xmlns:inkscape="http://www.inkscape.org/namespaces/inkscape"
   xmlns:sodipodi="http://sodipodi.sourceforge.net/DTD/sodipodi-0.dtd"
   xmlns="http://www.w3.org/2000/svg"
   xmlns:svg="http://www.w3.org/2000/svg"
   xmlns:serif="http://www.serif.com/"><defs
   id="defs4" /><sodipodi:namedview
   id="namedview4"
   pagecolor="#ffffff"
   bordercolor="#666666"
   borderopacity="1.0"
   inkscape:showpageshadow="2"
   inkscape:pageopacity="0.0"
   inkscape:pagecheckerboard="0"
   inkscape:deskcolor="#d1d1d1"
   showgrid="false"
   inkscape:zoom="1.5702742"
   inkscape:cx="71.006705"
   inkscape:cy="371.59114"
   inkscape:window-width="2560"
   inkscape:window-height="1366"
   inkscape:window-x="0"
   inkscape:window-y="0"
   inkscape:window-maximized="1"
   inkscape:current-layer="svg4" />
    <path
   style="fill:#e580ff;stroke:none;stroke-width:1px;stroke-linecap:butt;stroke-linejoin:miter;stroke-opacity:1"
   d="M 305.02816,255.27668 164.8566,367.87005 180.2233,422.85607 40.036838,446.64229 132.72125,442.58769 -68.140963,526.02277 21.65227,587.15858 249.00109,452.15032 213.85284,381.52055 Z"
   id="path4"
   sodipodi:nodetypes="cccccccccc" /><g
   id="Layer-2"
   serif:id="Layer 2"
   transform="matrix(-1,0,0,1,594.78221,-82.954439)">
        <g
   transform="matrix(-0.968932,-0.412707,-0.396927,0.931884,371.104,568.718)"
   id="g1">
            <path
   d="m 31.699,-280.145 c 27.022,-2.477 29.886,16.601 29.886,16.601 l 46.571,-26.054 c 0,0 -6.269,-21.777 25.428,-30.991 7.325,-5.609 9.877,-10.968 37.841,-30.498 4.44,-3.101 21.052,-20.007 25.822,-23.399 54.048,-38.426 111.228,-83.861 111.228,-83.861 0,0 47.947,42.098 -16.506,108.76 0.379,1.492 19.361,-6.21 20.717,-4.501 1.804,-0.595 10.571,-4.544 116.884,-66.599 0,0 43.298,66.316 -51.015,120.823 -13.283,20.455 12.052,49.406 24.068,84.272 10.603,30.767 22.219,68.513 10.716,118.745 -14.08,61.485 -59.686,138.113 -71.914,149.313 -110.985,11.555 -216.043,-74.93 -219.626,-94.981 -2.711,-15.171 88.491,-63.872 105.571,-87.674 15.492,-21.59 15.09586,-39.04325 -6.25214,-34.65125 -18.0655,3.71629 -23.06784,19.92328 -39.42516,33.50083 -33.85956,28.10545 -71.21557,66.117814 -89.316928,58.145287 -4.595577,-2.023727 -14.471365,-12.249689 -22.952003,-28.113787 -1.803057,-3.37284 36.165261,-19.84283 62.298821,-42.85254 27.98628,-24.64097 53.76329,-44.10284 49.87511,-50.73974 -3.38689,-5.78123 -55.75393,14.39256 -84.465853,21.66098 -49.242049,12.46562 -66.361868,7.57921 -68.548196,2.92284 -8.472445,-18.04434 -18.545392,-74.07682 -18.545392,-74.07682 l -2.0495699,-20.56054 c 0,0 -3.3116891,-12.71326 23.7103109,-15.19126"
   style="fill:#ffba00;fill-rule:nonzero"
   id="path1"
   sodipodi:nodetypes="ccccccccccccscsccscsssssccc" />
        </g>
        <g
   transform="matrix(-0.927403,-0.374063,-0.374063,0.927403,433.904,335.277)"
   id="g2">
            <path
   d="M 0,-19.374 C -5.331,-15.746 -6.727,-8.468 -3.119,-3.118 0.49,2.232 7.737,3.628 13.068,0 18.399,-3.628 19.795,-10.906 16.187,-16.256 12.578,-21.606 5.331,-23.002 0,-19.374"
   style="fill:#231f20;fill-rule:nonzero"
   id="path2" />
        </g>
    </g>
    <g
   id="Layer1"
   transform="translate(-26.74692,17.028099)">
    </g>
    <g
   transform="matrix(-0.88596243,0.47118923,0.47118923,0.88596243,524.63862,-273.17419)"
   id="g3">
        <path
   d="m 408.248,229.857 c 9.63127,7.69991 13.51456,9.47262 19.54228,13.79223 7.57928,4.76867 14.66999,9.04755 23.01672,13.93977 0.014,0.497 0.021,0.996 0.021,1.498 0,22.019 -13.473,39.895 -30.068,39.895 -16.596,0 -26.906,-13.357 -26.906,-35.376 0,-13.059 7.075,-26.469 14.394,-33.749 z"
   style="fill:#2f2f2f;stroke:#1b2031;stroke-width:5.34px"
   id="path3"
   sodipodi:nodetypes="cccsssc" />
    </g>
    
<path
   style="fill:#e580ff;stroke:none;stroke-width:1px;stroke-linecap:butt;stroke-linejoin:miter;stroke-opacity:1"
   d="m 225.71652,309.35882 -82.42945,46.62996 -128.639947,8.2788 -62.409479,62.40948 26.746919,47.12553 61.77265,-92.34056 91.756067,-7.64383 -38.979963,47.41961 55.409643,-48.694 z"
   id="path5"
   sodipodi:nodetypes="cccccccccc" /><path
   style="fill:#e580ff;stroke:none;stroke-width:1px;stroke-linecap:butt;stroke-linejoin:miter;stroke-opacity:1"
   d="m 293.50203,450.63275 1.35092,9.15955 29.61266,49.99127 -29.61266,-26.74692 v 41.07562 l -66.23046,-5.73148 15.22615,-27.74365 -126.91668,92.81696 138.40578,-117.17834 8.41973,-13.25019 -39.70178,-71.52525 28.61275,-43.27969 -17.34632,41.98541 z"
   id="path6"
   sodipodi:nodetypes="cccccccccccccc" /></svg>
