<?xml version="1.0" encoding="UTF-8" standalone="no"?>
<svg
   width="100%"
   height="100%"
   viewBox="0 0 512 512"
   version="1.1"
   xml:space="preserve"
   style="fill-rule:evenodd;clip-rule:evenodd;stroke-linecap:round;stroke-linejoin:round;stroke-miterlimit:1.5;"
   id="svg4"
   sodipodi:docname="dragnlightning.svg"
   inkscape:version="1.4.2 (ebf0e940d0, 2025-05-08)"
   inkscape:export-filename="dragnlightning2.png"
   inkscape:export-xdpi="48"
   inkscape:export-ydpi="48"
   xmlns:inkscape="http://www.inkscape.org/namespaces/inkscape"
   xmlns:sodipodi="http://sodipodi.sourceforge.net/DTD/sodipodi-0.dtd"
   xmlns="http://www.w3.org/2000/svg"
   xmlns:svg="http://www.w3.org/2000/svg"
   xmlns:serif="http://www.serif.com/"><defs
   id="defs4" /><sodipodi:namedview
   id="namedview4"
   pagecolor="#ffffff"
   bordercolor="#666666"
   borderopacity="1.0"
   inkscape:showpageshadow="2"
   inkscape:pageopacity="0.0"
   inkscape:pagecheckerboard="0"
   inkscape:deskcolor="#d1d1d1"
   showgrid="false"
   inkscape:zoom="3.1405485"
   inkscape:cx="201.39794"
   inkscape:cy="498.79822"
   inkscape:window-width="2560"
   inkscape:window-height="1366"
   inkscape:window-x="0"
   inkscape:window-y="0"
   inkscape:window-maximized="1"
   inkscape:current-layer="svg4" />
    <path
   style="fill:#e580ff;stroke:none;stroke-width:1px;stroke-linecap:butt;stroke-linejoin:miter;stroke-opacity:1"
   d="M 268.63049,311.22411 128.45893,423.81748 138.73098,474.02726 3.6391645,502.58972 96.323579,498.53512 -104.53864,581.9702 -14.745404,643.10601 217.06124,482.6245 177.45517,437.46798 Z"
   id="path4"
   sodipodi:nodetypes="cccccccccc" /><g
   id="Layer-2"
   serif:id="Layer 2"
   transform="matrix(-1,0,0,1,558.38454,-27.007006)">
        <g
   transform="matrix(-0.968932,-0.412707,-0.396927,0.931884,371.104,568.718)"
   id="g1">
            <path
   d="m 31.699,-280.145 c 27.022,-2.477 29.886,16.601 29.886,16.601 l 46.571,-26.054 c 0,0 -6.269,-21.777 25.428,-30.991 7.325,-5.609 9.877,-10.968 37.841,-30.498 4.44,-3.101 21.052,-20.007 25.822,-23.399 54.048,-38.426 105.89536,-70.27633 105.89536,-70.27633 0,0 27.1597,48.5966 -11.17336,95.17533 0.379,1.492 19.361,-6.21 20.717,-4.501 1.804,-0.595 50.99097,-19.26061 101.33062,-41.11124 0,0 22.31795,48.32647 -35.46162,95.33524 -13.283,20.455 12.052,49.406 24.068,84.272 10.603,30.767 22.219,68.513 10.716,118.745 -14.08,61.485 -67.79471,207.64359 -80.02271,218.84359 -67.6125,21.19621 -216.37304,-43.640663 -229.15561,-95.784512 -1.95066,-7.957345 35.21426,-41.427999 66.52096,-76.815857 27.52144,-31.109148 48.94507,-64.240221 56.93557,-75.375461 15.492,-21.59 14.84865,-43.25301 -6.49935,-38.86101 -18.0655,3.71629 -23.06784,19.92328 -39.42516,33.50083 -33.85956,28.10545 -71.21557,66.117814 -89.316928,58.145287 -4.595577,-2.023727 -14.471365,-12.249689 -22.952003,-28.113787 -1.803057,-3.37284 36.165261,-19.84283 62.298821,-42.85254 27.98628,-24.64097 53.76329,-44.10284 49.87511,-50.73974 -3.38689,-5.78123 -55.75393,14.39256 -84.465853,21.66098 -49.242049,12.46562 -66.361868,7.57921 -68.548196,2.92284 -8.472445,-18.04434 -18.545392,-74.07682 -18.545392,-74.07682 l -2.0495699,-20.56054 c 0,0 -3.3116891,-12.71326 23.7103109,-15.19126"
   style="fill:#ffba00;fill-rule:nonzero"
   id="path1"
   sodipodi:nodetypes="ccccccccccccscssccscsssssccc" />
        </g>
        <g
   transform="matrix(-0.927403,-0.374063,-0.374063,0.927403,433.904,335.277)"
   id="g2">
            <path
   d="M 0,-19.374 C -5.331,-15.746 -6.727,-8.468 -3.119,-3.118 0.49,2.232 7.737,3.628 13.068,0 18.399,-3.628 19.795,-10.906 16.187,-16.256 12.578,-21.606 5.331,-23.002 0,-19.374"
   style="fill:#231f20;fill-rule:nonzero"
   id="path2" />
        </g>
    </g>
    <g
   id="Layer1"
   transform="translate(-28.020583,18.938593)">
    </g>
    <g
   transform="matrix(-0.66322202,0.35272723,0.35272723,0.66322202,420.37078,-110.23448)"
   id="g3">
        <path
   d="m 408.248,229.857 c 9.63127,7.69991 13.51456,9.47262 19.54228,13.79223 7.57928,4.76867 14.66999,9.04755 23.01672,13.93977 0.014,0.497 0.021,0.996 0.021,1.498 0,22.019 -13.473,39.895 -30.068,39.895 -16.596,0 -26.906,-13.357 -26.906,-35.376 0,-13.059 7.075,-26.469 14.394,-33.749 z"
   style="fill:#2f2f2f;stroke:#1b2031;stroke-width:5.34px"
   id="path3"
   sodipodi:nodetypes="cccsssc" />
    </g>
    
<path
   style="fill:#e580ff;stroke:none;stroke-width:1px;stroke-linecap:butt;stroke-linejoin:miter;stroke-opacity:1"
   d="m 189.31885,365.30625 -82.42945,46.62996 -128.639951,8.2788 -62.409479,62.40948 26.746919,47.12553 61.7726505,-92.34056 91.7560695,-7.64383 -38.979966,47.41961 55.409647,-48.694 z"
   id="path5"
   sodipodi:nodetypes="cccccccccc" /><path
   style="fill:#e580ff;stroke:none;stroke-width:1px;stroke-linecap:butt;stroke-linejoin:miter;stroke-opacity:1"
   d="m 267.61208,480.15168 1.35092,9.15955 29.61266,49.99127 -29.61266,-26.74692 v 41.07562 l -66.23046,-5.73148 15.22615,-27.74365 -126.916682,92.81696 138.405782,-117.17834 8.41973,-13.25019 -50.2095,-45.09675 28.61275,-43.27969 -17.34632,41.98541 z"
   id="path6"
   sodipodi:nodetypes="cccccccccccccc" /></svg>
